:SAMPLES-PER-SECOND 30
:FULLY-SPECIFIED
:DEGREES
359
root  11.968 37.8265 -11.5285 -20.4924 -74.4316 14.435
RightUpLeg  -25.4849 -20.5664 -1.91178
RightLeg  15.9401 -4.89103 -0.17584
RightFoot  5.52865 0.699754 -4.51918
RightToes  0.00048216 0.542163 -0.142577
Spine  16.7283 4.02661 16.1677
Spine1  8.62278 10.4524 -14.6647
HEad  6.33046 -10.0266 -3.45611
LeftShoulder1  7.61745 -11.9877 -42.7342
LeftArm  -18.9048 44.4037 -23.8612
LeftForeArm  20.9276 -74.2344 -44.3631
LeftHand  -0.25398 0.0180481 5.50724
RightShoulder  5.58861 10.7182 33.3482
RightArm  45.3663 25.2125 62.7301
RightForeArm  -28.8903 44.2677 12.5727
RightHand  0.37576 -10.2084 -10.3506
LeftUpLeg  25.866 10.3378 5.2913
LeftLeg  17.0409 -3.64075 -1.26412
LeftFoot  -16.2877 -0.448839 -13.1443
LeftToes  1.06248e-005 4.65856e-005 -8.18499e-006
360
root  9.98002 37.7683 -11.523 -17.5246 -75.717 10.6403
RightUpLeg  -26.2109 -19.681 0.329654
RightLeg  22.8086 -3.39061 -2.00938
RightFoot  6.16912 1.15748 -7.27002
RightToes  0.00048216 0.542163 -0.142577
Spine  17.9511 3.70933 18.5775
Spine1  8.13824 10.8748 -14.7167
HEad  7.20201 -8.84107 -4.18008
LeftShoulder1  7.54341 -11.8033 -42.8339
LeftArm  -20.2799 44.7805 -24.408
LeftForeArm  15.8575 -72.8697 -39.9797
LeftHand  -0.25398 0.0180481 5.50724
RightShoulder  5.81222 10.9828 34.1693
RightArm  45.9474 24.2566 63.2445
RightForeArm  -28.8214 43.1224 12.1083
RightHand  0.384348 -10.0464 -10.8741
LeftUpLeg  24.699 8.12878 6.3544
LeftLeg  24.4202 -0.580566 0.19147
LeftFoot  -8.86799 0.396763 -16.7954
LeftToes  1.06248e-005 4.65856e-005 -8.18499e-006
361
root  8.12165 37.762 -11.5772 -12.3126 -75.8548 5.1891
RightUpLeg  -25.4573 -17.3504 1.18846
RightLeg  27.8679 -5.42609 -3.34117
RightFoot  3.14479 1.10028 -8.45833
RightToes  0.00048216 0.542163 -0.142577
Spine  18.4907 3.29265 20.2702
Spine1  7.9535 10.8552 -14.0077
HEad  7.53 -7.84988 -4.46571
LeftShoulder1  7.51014 -11.7779 -42.7085
LeftArm  -21.8552 44.8186 -25.4457
LeftForeArm  12.6385 -71.7165 -36.8846
LeftHand  -0.25398 0.0180481 5.50724
RightShoulder  5.93693 11.2301 34.3396
RightArm  46.6384 24.0562 63.9678
RightForeArm  -29.2432 41.7917 11.6129
RightHand  0.383252 -9.90527 -11.1547
LeftUpLeg  19.0476 4.29359 6.15565
LeftLeg  36.1725 3.8302 3.37907
LeftFoot  3.51319 1.71398 -13.7568
LeftToes  1.06248e-005 4.65856e-005 -8.18499e-006
362
root  6.49267 37.7288 -11.6649 -3.19911 -74.0743 -3.46642
RightUpLeg  -24.8792 -17.5461 3.36572
RightLeg  31.2941 -7.06804 -4.86329
RightFoot  -1.11452 0.760235 -8.53108
RightToes  0.00048216 0.542163 -0.142577
Spine  17.9544 2.62667 22.6341
Spine1  8.36001 10.4958 -12.7325
HEad  7.28451 -7.93184 -4.11069
LeftShoulder1  7.58286 -11.9494 -42.6398
LeftArm  -21.738 43.7276 -25.7228
LeftForeArm  10.6005 -70.7773 -34.6706
LeftHand  -0.25398 0.0180481 5.50724
RightShoulder  5.89712 11.2232 34.0896
RightArm  46.5451 24.5045 64.1944
RightForeArm  -29.7564 40.8431 11.2843
RightHand  0.391112 -9.90954 -11.3359
LeftUpLeg  10.0295 -0.777253 6.40327
LeftLeg  49.3606 4.63653 6.09291
LeftFoot  13.8861 1.6042 -7.41111
LeftToes  1.06248e-005 4.65856e-005 -8.18499e-006
363
root  4.90614 37.8716 -11.7479 3.68103 -71.8006 -9.68719
RightUpLeg  -23.6666 -18.4514 5.49875
RightLeg  32.6857 -8.29146 -5.94888
RightFoot  -4.5033 0.443551 -7.90643
RightToes  0.00048216 0.542163 -0.142577
Spine  17.0198 2.35163 25.0755
Spine1  8.85218 10.4127 -11.9845
HEad  7.04142 -9.05056 -3.25278
LeftShoulder1  7.72199 -12.1797 -42.7946
LeftArm  -20.0709 41.4828 -25.0983
LeftForeArm  9.39074 -70.0236 -33.0322
LeftHand  -0.25398 0.0180481 5.50724
RightShoulder  5.79901 11.0445 33.9102
RightArm  45.6893 25.2858 63.6154
RightForeArm  -30.4048 39.7951 10.9387
RightHand  0.394012 -10.0164 -11.1705
LeftUpLeg  0.766304 -5.43574 6.85514
LeftLeg  60.0653 3.00761 6.15908
LeftFoot  16.1967 0.817455 -3.67287
LeftToes  1.06248e-005 4.65856e-005 -8.18499e-006
364
root  3.19559 38.275 -11.816 5.51653 -70.9208 -10.968
RightUpLeg  -20.8998 -19.0418 6.23344
RightLeg  31.9001 -8.59121 -5.98972
RightFoot  -6.90233 0.228694 -7.09383
RightToes  0.00048216 0.542163 -0.142577
Spine  16.2587 2.84029 25.9379
Spine1  9.07318 10.8758 -12.233
HEad  7.50931 -10.2407 -2.37454
LeftShoulder1  7.83782 -12.3164 -43.0789
LeftArm  -18.934 39.0188 -24.5329
LeftForeArm  9.40926 -69.6413 -32.166
LeftHand  -0.25398 0.0180481 5.50724
RightShoulder  5.78308 11.004 33.9116
RightArm  45.2028 26.2239 62.8843
RightForeArm  -31.5551 37.7304 10.2879
RightHand  0.360874 -10.1124 -10.1939
LeftUpLeg  -6.92573 -7.90804 6.53057
LeftLeg  66.2915 1.73627 5.07626
LeftFoot  12.7649 0.584353 -3.14119
LeftToes  1.06248e-005 4.65856e-005 -8.18499e-006
365
root  1.42746 38.7166 -11.8624 4.96611 -71.3051 -9.92278
RightUpLeg  -17.2333 -19.817 5.97904
RightLeg  29.9947 -7.7374 -5.09385
RightFoot  -8.96622 0.0753263 -6.57938
RightToes  0.00048216 0.542163 -0.142577
Spine  15.5906 3.67343 25.6351
Spine1  9.18997 11.5918 -12.8411
HEad  8.80483 -10.8414 -1.94333
LeftShoulder1  7.90194 -12.3702 -43.2966
LeftArm  -19.3185 37.0617 -24.5103
LeftForeArm  10.3762 -69.5942 -31.9078
LeftHand  -0.25398 0.0180481 5.50724
RightShoulder  5.85508 11.1798 33.924
RightArm  45.6204 27.1599 62.6749
RightForeArm  -33.0691 34.7588 9.41028
RightHand  0.294721 -10.1133 -8.63994
LeftUpLeg  -13.0791 -8.4305 5.68973
LeftLeg  67.9813 1.42914 4.67658
LeftFoot  8.89294 0.655827 -3.96628
LeftToes  1.06248e-005 4.65856e-005 -8.18499e-006
